<svg xmlns="http://www.w3.org/2000/svg" version="1.1" xmlns:xlink="http://www.w3.org/1999/xlink" xmlns:svgjs="http://svgjs.dev/svgjs" width="2000" height="1999" viewBox="0 0 2000 1999"><g transform="matrix(1,0,0,1,-0.431486880466764,-0.4312711370263287)"><svg viewBox="0 0 343 343" data-background-color="#ffffff" preserveAspectRatio="xMidYMid meet" height="1999" width="2000" xmlns="http://www.w3.org/2000/svg" xmlns:xlink="http://www.w3.org/1999/xlink"><g id="tight-bounds" transform="matrix(1,0,0,1,0.0740000000000407,0.07400000000001228)"><svg viewBox="0 0 342.85155851775386 342.85155851775386" height="342.85155851775386" width="342.85155851775386"><g><svg></svg></g><g><svg viewBox="0 0 342.85155851775386 342.85155851775386" height="342.85155851775386" width="342.85155851775386"><g><path d="M0 171.426c0-94.676 76.75-171.426 171.426-171.426 94.676 0 171.426 76.75 171.426 171.426 0 94.676-76.75 171.426-171.426 171.426-94.676 0-171.426-76.75-171.426-171.426zM171.426 337.644c91.8 0 166.218-74.418 166.218-166.218 0-91.8-74.418-166.218-166.218-166.218-91.8 0-166.218 74.418-166.218 166.218 0 91.8 74.418 166.218 166.218 166.218z" data-fill-palette-color="tertiary" fill="#000000" stroke="transparent"></path><ellipse rx="164.56874808852186" ry="164.56874808852186" cx="171.42577925887693" cy="171.42577925887693" fill="#000000" stroke="transparent" stroke-width="0" fill-opacity="1" data-fill-palette-color="tertiary"></ellipse></g><g transform="matrix(1,0,0,1,64.84655864529837,95.82886857778624)"><svg viewBox="0 0 213.1584412271571 151.19382136218138" height="151.19382136218138" width="213.1584412271571"><g><svg viewBox="0 0 213.1584412271571 151.19382136218138" height="151.19382136218138" width="213.1584412271571"><g><svg viewBox="0 0 213.1584412271571 151.19382136218138" height="151.19382136218138" width="213.1584412271571"><g transform="matrix(1,0,0,1,0,93.44384719711461)"><svg viewBox="0 0 213.1584412271571 57.74997416506679" height="57.74997416506679" width="213.1584412271571"><g id="textblocktransform"><svg viewBox="0 0 213.1584412271571 57.74997416506679" height="57.74997416506679" width="213.1584412271571" id="textblock"><g><svg viewBox="0 0 213.1584412271571 57.74997416506679" height="57.74997416506679" width="213.1584412271571"><g transform="matrix(1,0,0,1,0,0)"><svg width="213.1584412271571" viewBox="2.35 -36.35 136.19 36.9" height="57.74997416506679" data-palette-color="#ffffff"><path d="M29.25-25.5L29.25-25.5 24.95-25.5Q24.8-32.5 16-32.5L16-32.5Q12.4-32.5 10.2-30.88 8-29.25 8-26.6L8-26.6Q8-24.6 9.33-23.43 10.65-22.25 13.9-21.4L13.9-21.4 22.4-19.2Q30.5-17.05 30.5-10.2L30.5-10.2Q30.5-5.25 26.55-2.15L26.55-2.15Q23.05 0.55 16.5 0.55L16.5 0.55Q8.2 0.55 4.45-4.45L4.45-4.45Q2.45-7.15 2.35-11.7L2.35-11.7 6.65-11.7 6.65-11.6Q6.65-7.7 9.33-5.58 12-3.45 16.8-3.45L16.8-3.45Q21.2-3.45 23.35-4.9L23.35-4.9Q25.9-6.65 25.9-9.8L25.9-9.8Q25.9-13.8 19.35-15.45L19.35-15.45 10.45-17.75Q3.45-19.55 3.45-26L3.45-26Q3.45-31.1 7.3-33.9L7.3-33.9Q10.65-36.35 16.15-36.35L16.15-36.35Q23.95-36.35 27.3-31.8L27.3-31.8Q29.25-29.15 29.25-26.05L29.25-26.05Q29.25-25.9 29.25-25.5ZM59-3.45L59-3.45 59-0.15Q57.3 0.45 56.35 0.45L56.35 0.45Q52.35 0.45 52-3.2L52-3.2Q49.25 0.55 43.25 0.55L43.25 0.55Q39.1 0.55 36.8-1.75L36.8-1.75Q34.8-3.75 34.8-6.9L34.8-6.9Q34.8-10.5 37.35-12.45L37.35-12.45Q38.8-13.55 43.4-14.6L43.4-14.6 51.8-16.5 51.85-18.65Q51.85-22.5 46.05-22.5L46.05-22.5Q40.5-22.5 40.1-18L40.1-18 35.95-18Q36.1-21.4 37.65-23.2L37.65-23.2Q40.3-26.25 46.25-26.25L46.25-26.25Q55.9-26.25 55.9-19.25L55.9-19.25 55.9-4.9Q55.9-3 57.55-3L57.55-3Q57.75-3 58.6-3.3L58.6-3.3Q58.9-3.4 59-3.45ZM51.85-8.65L51.85-13.15 45.25-11.45Q41.7-10.55 40.37-9.6 39.05-8.65 39.05-6.95L39.05-6.95Q39.05-3 44.15-3L44.15-3Q47.75-3 50.25-5.35L50.25-5.35Q51.85-6.8 51.85-8.65L51.85-8.65ZM63.5 0L63.5-25.7 67.3-25.7 67.3-21.35Q70.4-26.25 75.8-26.25L75.8-26.25Q79.55-26.25 81.75-24.38 83.95-22.5 83.95-19.35L83.95-19.35 83.95 0 79.9 0 79.9-17.7Q79.9-20 78.47-21.35 77.05-22.7 74.59-22.7L74.59-22.7Q71.4-22.7 69.5-20.35 67.59-18 67.59-14.1L67.59-14.1 67.59 0 63.5 0ZM113.59-3.45L113.59-3.45 113.59-0.15Q111.89 0.45 110.94 0.45L110.94 0.45Q106.94 0.45 106.59-3.2L106.59-3.2Q103.84 0.55 97.84 0.55L97.84 0.55Q93.69 0.55 91.39-1.75L91.39-1.75Q89.39-3.75 89.39-6.9L89.39-6.9Q89.39-10.5 91.94-12.45L91.94-12.45Q93.39-13.55 97.99-14.6L97.99-14.6 106.39-16.5 106.44-18.65Q106.44-22.5 100.64-22.5L100.64-22.5Q95.09-22.5 94.69-18L94.69-18 90.54-18Q90.69-21.4 92.24-23.2L92.24-23.2Q94.89-26.25 100.84-26.25L100.84-26.25Q110.49-26.25 110.49-19.25L110.49-19.25 110.49-4.9Q110.49-3 112.14-3L112.14-3Q112.34-3 113.19-3.3L113.19-3.3Q113.49-3.4 113.59-3.45ZM106.44-8.65L106.44-13.15 99.84-11.45Q96.29-10.55 94.97-9.6 93.64-8.65 93.64-6.95L93.64-6.95Q93.64-3 98.74-3L98.74-3Q102.34-3 104.84-5.35L104.84-5.35Q106.44-6.8 106.44-8.65L106.44-8.65ZM118.09 0L118.09-25.7 121.89-25.7 121.89-21.35Q124.99-26.25 130.39-26.25L130.39-26.25Q134.14-26.25 136.34-24.38 138.54-22.5 138.54-19.35L138.54-19.35 138.54 0 134.49 0 134.49-17.7Q134.49-20 133.06-21.35 131.64-22.7 129.19-22.7L129.19-22.7Q125.99-22.7 124.09-20.35 122.19-18 122.19-14.1L122.19-14.1 122.19 0 118.09 0Z" opacity="1" transform="matrix(1,0,0,1,0,0)" fill="#ffffff" class="wordmark-text-0" data-fill-palette-color="quaternary" id="text-0"></path></svg></g></svg></g></svg></g></svg></g><g transform="matrix(1,0,0,1,66.6739884655174,0)"><svg viewBox="0 0 79.8104642961223 79.8104642961223" height="79.8104642961223" width="79.8104642961223"><g><svg xmlns="http://www.w3.org/2000/svg" xmlns:xlink="http://www.w3.org/1999/xlink" version="1.1" x="0" y="0" viewBox="3 3 58 58" style="enable-background:new 0 0 64 64;" xml:space="preserve" height="79.8104642961223" width="79.8104642961223" class="icon-icon-0" data-fill-palette-color="quaternary" id="icon-0"><g fill="#ffffff" data-fill-palette-color="quaternary"><rect x="47" y="35" width="4" height="2" fill="#ffffff" data-fill-palette-color="quaternary"></rect><rect x="47" y="39" width="4" height="2" fill="#ffffff" data-fill-palette-color="quaternary"></rect><rect x="47" y="43" width="4" height="2" fill="#ffffff" data-fill-palette-color="quaternary"></rect><rect x="47" y="47" width="4" height="2" fill="#ffffff" data-fill-palette-color="quaternary"></rect><rect x="47" y="51" width="4" height="2" fill="#ffffff" data-fill-palette-color="quaternary"></rect><rect x="47" y="55" width="4" height="2" fill="#ffffff" data-fill-palette-color="quaternary"></rect><rect x="47" y="59" width="4" height="2" fill="#ffffff" data-fill-palette-color="quaternary"></rect><rect x="13" y="35" width="4" height="2" fill="#ffffff" data-fill-palette-color="quaternary"></rect><rect x="13" y="39" width="4" height="2" fill="#ffffff" data-fill-palette-color="quaternary"></rect><rect x="13" y="43" width="4" height="2" fill="#ffffff" data-fill-palette-color="quaternary"></rect><rect x="13" y="47" width="4" height="2" fill="#ffffff" data-fill-palette-color="quaternary"></rect><rect x="13" y="51" width="4" height="2" fill="#ffffff" data-fill-palette-color="quaternary"></rect><rect x="13" y="55" width="4" height="2" fill="#ffffff" data-fill-palette-color="quaternary"></rect><rect x="13" y="59" width="4" height="2" fill="#ffffff" data-fill-palette-color="quaternary"></rect><path d="M41 57V39H36V41H39.618L34.342 51.553C33.896 52.445 32.998 53 32 53S30.104 52.445 29.658 51.553L24.382 41H28V39H23V57z" fill="#ffffff" data-fill-palette-color="quaternary"></path><path d="M44 35H36V37H43V59H21V37H28V35H20C19.449 35 19 35.448 19 36V60C19 60.552 19.449 61 20 61H44C44.551 61 45 60.552 45 60V36C45 35.448 44.551 35 44 35" fill="#ffffff" data-fill-palette-color="quaternary"></path><path d="M53 11A8 8 0 0 0 49.074 12.034L48.249 12.501 47.739 11.703A7.97 7.97 0 0 0 41 8 7.96 7.96 0 0 0 35.465 10.233L34.458 11.2 33.867 9.934C31.898 5.722 27.633 3 23 3 16.731 3 11.479 7.9 11.043 14.156L10.968 15.238 9.896 15.075A6 6 0 0 0 9 15C5.691 15 3 17.691 3 21S5.691 27 9 27H28V22H30V43H27.618L31.447 50.658C31.658 51.08 32.342 51.08 32.552 50.658L36.382 43H34V20H36V27H53C57.411 27 61 23.411 61 19S57.411 11 53 11M23 7C18.589 7 15 10.589 15 15H13C13 9.486 17.486 5 23 5zM49 25H47V23H49zM53 25H51V23H53C55.206 23 57 21.206 57 19H59C59 22.309 56.309 25 53 25" fill="#ffffff" data-fill-palette-color="quaternary"></path></g></svg></g></svg></g><g></g></svg></g></svg></g></svg></g></svg></g><defs></defs></svg><rect width="342.85155851775386" height="342.85155851775386" fill="none" stroke="none" visibility="hidden"></rect></g></svg></g></svg>